<?xml version="1.0" encoding="utf-8"?>
<!-- Generator: Adobe Illustrator 18.1.1, SVG Export Plug-In . SVG Version: 6.00 Build 0)  -->
<!DOCTYPE svg PUBLIC "-//W3C//DTD SVG 1.1//EN" "http://www.w3.org/Graphics/SVG/1.1/DTD/svg11.dtd">
<svg version="1.1" id="Layer_1" xmlns="http://www.w3.org/2000/svg" xmlns:xlink="http://www.w3.org/1999/xlink" x="0px" y="0px"
	 viewBox="630 2700 140 600" enable-background="new 630 2700 140 600" xml:space="preserve">
<g>
	<g>
		<path fill="#58FF28" d="M887.3,2832.9c5.9,5.9,15-3.2,9.1-9.1c-15.6-15.6-31.2-31.2-46.7-46.8c-6.7-6.7-13.5-15.1-21.5-20.4
			c-9.5-6.2-20.5-5.4-31.3-5.4c-15.8,0-54.9,0-70.7,0c-21.3,0-28.5-0.7-37,4.8c-4.8,3.4-8.8,7.9-13,12.1c-5.5,5.5-10.9,11-16.4,16.5
			c-43.3,43.4-86.6,86.8-129.9,130.1c-28.8,28.9-57.7,57.8-86.5,86.7c-5.9,5.9,3.2,15,9.1,9.1c19-19,38-38.1,57-57.1
			c45.7-45.8,91.4-91.6,137-137.3c13.3-13.4,26.7-26.7,40-40.1c14.2-14.2,9.9-11.9,50.9-11.9c14.7,0,52.6,0,67.3,0
			c5.5,0,11.2-0.2,16,3c4.2,2.8,7.7,6.8,11.3,10.4C850.4,2796,868.9,2814.5,887.3,2832.9L887.3,2832.9z"/>
	</g>
</g>
<g id="Pittsburg_x2F_Bay_Point_2_">
	<g>
		<path fill="#FFF100" d="M428.1,2840.4c-5-5-12.7,2.7-7.7,7.7c7.5,7.5,14.9,15,22.4,22.5c0-2.6,0-5.1,0-7.7c-1.5,1.5-3,3-4.6,4.6
			c-4.8,4.8-9.6,9.6-14.4,14.4c-2.5,2.5-5.7,4.8-5.7,8.7c0,11,0,21.9,0,32.9c0,9.8,0,19.5,0,29.3c0,9.6,8.1,18,17.7,18.4
			c2.5,0.1,5,0.1,7.5,0.1c24.5,0,49.1,0,73.6,0c14.4,0,28.3-2.8,39.4-12.9c6.4-5.8,12.3-12.2,18.4-18.3c9.6-9.6,19.2-19.2,28.8-28.8
			c2.6-2.6,5.3-5.3,7.9-7.9c3.6-3.6,10.6-6.8,15.1-2.7c7.9,7.4,15.4,15.3,23,23c2.9,2.9,5.8,6.2,9.1,8.8c6.5,5,14.2,4.5,22,4.5
			c40.1,0,80.2,0.1,120.3,0.1c38.4,0,76.8,0.1,115.3,0.1c7,0,7-10.9,0-10.9c-22.9,0-45.8,0-68.7-0.1c-50.9,0-101.8-0.1-152.7-0.1
			c-4.6,0-9.2,0-13.9,0c-12.5-0.2-13.7-0.1-24.2-10.6c-4.9-4.9-9.8-9.8-14.7-14.7c-2.8-2.8-5.4-5.8-8.5-8.3
			c-7.6-6.1-18.4-5.5-26.1,0c-2.6,1.9-4.9,4.4-7.1,6.6c-16.3,16.3-32.6,32.6-48.9,48.9c-9,9-20.1,12.4-32.5,12.4
			c-11.4,0-22.7,0-34.1,0c-13,0-26,0-39,0c-7,0-16.9,1.2-16.9-8.7c0-20.6,0-41.2,0.1-61.7c-0.5,1.3-1.1,2.6-1.6,3.9
			c7.7-7.7,15.3-15.3,23-23c2.1-2.1,2.1-5.6,0-7.7C443,2855.4,435.5,2847.9,428.1,2840.4L428.1,2840.4z"/>
	</g>
</g>
<g id="Dublin_x2F_Pleasanton_1_">
	<g>
		<path fill="#00D5E2" d="M595.7,3212.9c0-21.6,0-43.2,0-64.8c0-7.5-0.1-15,0-22.4c0.2-11,7.9-18.5,15.1-25.7
			c16.7-16.7,33.4-33.4,50.1-50.1c4-4,8.3-7.6,13.9-9.1c3.4-0.9,6.9-0.8,10.4-0.8c8.5,0-5.1,0,3.4,0c26.5,0,2.2,0.1,28.7,0.1
			c7.6,0,9.4,0.2,17.1-0.1c8.6-0.4,14.3-4.5,20.1-10.3c33-33,66.1-66.1,99.1-99.1c1.4-1.4,2.8-2.8,4.2-4.2c5-5-2.7-12.7-7.7-7.7
			c-30.8,30.8-61.6,61.6-92.4,92.4c-4.8,4.8-8.7,8.7-13.5,13.5c-4.8,4.9-14.7,4.7-21.8,4.7c-23.4,0,9.8-0.1-13.6-0.1
			c-12,0-2.1,0-14.2-0.1c-6.9,0-14-0.4-20.8,0.7c-11.2,1.9-19,10.7-26.6,18.4c-9.4,9.4-18.8,18.8-28.2,28.2
			c-7,7-13.9,13.9-20.9,20.9c-8.5,8.5-13.3,18.8-13.3,30.9c0,23.8,0,47.5,0,71.3c0,4.5,0,9,0,13.5c0,7-11,7-11,0H595.7L595.7,3212.9
			z"/>
	</g>
</g>
<g id="Richmond_1_">
	<g>
		<path fill="#FF3A47" d="M567.8,3359.8c-14.2-14.1-28.3-28.3-42.5-42.4c-8.9-8.9-17.8-17.7-26.6-26.6c-6.4-6.4-13.5-11.9-13-21.9
			c0.4-9.6,10.4-17,16.7-23.2c9.7-9.7,19.5-19.4,29.2-29.2c6-6,11.9-11.9,17.9-17.9c6.3-6.3,13.5-11.5,21.9-14.5
			c6.5-2.2,13.2-2,19.9-2c12.3,0,24.6,0,36.9,0c10.1,0,24.2,1.3,31.7-6.4c4.6-4.6,4.6-10.9,4.6-16.9c0-6.7,0-13.3,0-20
			c0-5.7,0.3-11.5-2.4-16.8c-1.9-3.8-5.4-6.7-8.4-9.6c-20.9-20.9-41.9-41.9-62.8-62.8c-5-5-12.7,2.7-7.7,7.7c15,15,30,30,44.9,44.9
			c6.4,6.4,12.8,12.8,19.3,19.3c4,4,6.2,6.4,6.2,12.3c0,5.5,0,11,0,16.4c0,4.8,0.1,9.6,0,14.4c-0.2,5.5-6.2,5.8-10.4,5.8
			c-12.3,0-24.6,0-36.9,0c-12.2,0-24.7-0.8-36.6,2.7c-12.8,3.8-22.5,12.3-31.7,21.4c-17.1,17-34.1,34-51.2,51.1
			c-3.1,3.1-5.9,6.1-8.1,9.9c-5.4,9.2-5.1,20.8,0.3,29.9c3.7,6.2,10.3,11.3,15.3,16.4c21.9,21.9,43.8,43.7,65.8,65.6
			C565,3372.4,572.8,3364.7,567.8,3359.8L567.8,3359.8z"/>
	</g>
</g>
<g id="Richmond_2_">
	<g>
		<path fill="#FFA100" d="M747.3,3314.2c0,7,10.9,7,10.9,0c0-31,0.1-78.8,0.1-109.7c0-7.1,0.4-18.8-0.9-22.4
			c-2.5-10.5-11.5-18.7-21.9-21.4c-4.2-1.1-8.4-1.2-12.8-1.2c-24.1,0-73.5,0-97.6,0.1c-13,0-25.9,0.9-37.6,7.3
			c-10.9,5.9-19.1,15.3-27.8,23.9c-8.7,8.7-17.4,17.4-26.1,26.1c-2.9,2.9-7.4,7-11.4,3.2c-3.5-3.3-6.8-6.8-10.2-10.1
			c-3.9-3.9-7.7-7.7-11.6-11.6c-4.1-4.1-4.3-7.4-4.3-13.1c0-9.1,0-18.2,0-27.3c0-21.2,0-42.4,0-63.6c0-7-10.9-7-10.9,0
			c0,29.6,0,59.2,0,88.9c0,4.2-0.4,8.7,0.9,12.7c1.8,5.6,6.1,9.5,10.2,13.6c4.7,4.7,9.4,9.4,14.1,14.1c4.2,4.2,8.7,8.7,15.2,8.7
			c11.1,0,19.2-11.2,26.4-18.4c8.7-8.7,17.4-17.4,26.1-26.1c4.8-4.8,9.9-9.2,16-12.2c8.1-3.9,16.8-5.3,25.7-5.3l93-0.1
			c9.8,0,20.8-0.6,27,5.6c6.9,6.9,7.6,14.7,7.6,23.8c0,12.5,0,25.1,0,37.6c0,20-0.1,40-0.1,60V3314.2z"/>
	</g>
</g>
</svg>
