<?xml version="1.0" encoding="utf-8"?>
<!-- Generator: Adobe Illustrator 16.0.4, SVG Export Plug-In . SVG Version: 6.00 Build 0)  -->
<!DOCTYPE svg PUBLIC "-//W3C//DTD SVG 1.1//EN" "http://www.w3.org/Graphics/SVG/1.1/DTD/svg11.dtd">
<svg version="1.1" xmlns="http://www.w3.org/2000/svg" xmlns:xlink="http://www.w3.org/1999/xlink" x="0px" y="0px" width="954px"
	 height="640px" viewBox="0 0 954 640" enable-background="new 0 0 954 640" xml:space="preserve">
<g id="LINES" opacity="1">
	<g id="Dublin_x2F_Pleasanton">
		<g>
			<path fill="#00D5E2" d="M170.13,419.755c17.509-17.487,35.018-34.975,52.527-52.462c6.052-6.045,12.006-12.211,18.179-18.133
				c9.118-8.746,21.338-8.591,33.083-8.591c27.037,0,54.073,0,81.11,0c6.52,0,12.859,0.6,18.64,3.87
				c3.51,1.984,6.265,4.979,9.085,7.808c6.832,6.856,13.664,13.712,20.496,20.567c21.408,21.483,42.815,42.966,64.223,64.448
				c6.162,6.184,12.212,12.582,18.65,18.478c7.308,6.691,15.279,7.909,24.603,7.909c53.5,0,107,0,160.501,0c2.255,0,4.51,0,6.766,0
				c8.057,0,8.057-12.494,0-12.494c-49.867,0-99.735,0-149.603,0c-7.707,0-15.413,0-23.119,0c-8.755,0-14.413-8.125-20.168-13.9
				c-18.918-18.984-37.837-37.97-56.756-56.954c-9.736-9.77-19.472-19.54-29.208-29.31c-5.553-5.573-10.968-11.681-17.413-16.227
				c-10.668-7.526-24.06-6.689-36.459-6.689c-15.23,0-30.46,0-45.69,0c-11.285,0-22.57,0-33.855,0
				c-13.82,0-25.97,4.486-35.737,14.242c-19.261,19.237-38.522,38.476-57.784,57.713c-3.635,3.63-7.27,7.261-10.904,10.891
				C155.591,416.619,164.425,425.453,170.13,419.755L170.13,419.755z"/>
		</g>
	</g>
</g>
</svg>
