<?xml version="1.0" encoding="utf-8"?>
<!-- Generator: Adobe Illustrator 16.0.4, SVG Export Plug-In . SVG Version: 6.00 Build 0)  -->
<!DOCTYPE svg PUBLIC "-//W3C//DTD SVG 1.1//EN" "http://www.w3.org/Graphics/SVG/1.1/DTD/svg11.dtd">
<svg version="1.1" id="Layer_1" xmlns="http://www.w3.org/2000/svg" xmlns:xlink="http://www.w3.org/1999/xlink" x="0px" y="0px"
	 width="301.703px" height="141.29px" viewBox="0 0 301.703 141.29" enable-background="new 0 0 301.703 141.29"
	 xml:space="preserve">
<g id="LINES">
	<g>
		<g>
			<path fill="rgba(120, 255, 40, 1)" d="M43.196,110.34c17.911-17.949,35.822-35.897,53.736-53.845c3.468-3.475,6.835-7.396,10.94-10.091
				c4.699-3.087,10.209-2.931,15.58-2.932c14.275-0.002,28.55-0.004,42.826-0.006c10.874-0.002,22.762-1.262,33.577,0.399
				c6.909,1.062,11.138,6.518,15.797,11.188c12.941,12.969,25.882,25.938,38.823,38.906c44.35,44.446,88.7,88.892,133.05,133.337
				c18.446,18.487,36.894,36.974,55.341,55.46c5.695,5.708,14.529-3.127,8.834-8.834c-28.01-28.07-56.021-56.141-84.03-84.212
				c-42.028-42.118-84.057-84.237-126.085-126.356c-5.314-5.325-10.629-10.65-15.943-15.978c-4.048-4.057-7.963-8.382-12.633-11.718
				c-9.507-6.79-24.709-4.689-35.934-4.688c-15.37,0.002-30.739,0.004-46.108,0.007c-10.476,0.001-21.152-0.779-30.367,5.272
				c-7.739,5.084-14.347,13.258-20.854,19.778C64.618,71.185,49.49,86.344,34.363,101.504
				C28.667,107.213,37.5,116.048,43.196,110.34L43.196,110.34z"/>
		</g>
	</g>
</g>
</svg>
