<?xml version="1.0" encoding="utf-8"?>
<!-- Generator: Adobe Illustrator 16.0.4, SVG Export Plug-In . SVG Version: 6.00 Build 0)  -->
<!DOCTYPE svg PUBLIC "-//W3C//DTD SVG 1.1//EN" "http://www.w3.org/Graphics/SVG/1.1/DTD/svg11.dtd">
<svg version="1.1" xmlns="http://www.w3.org/2000/svg" xmlns:xlink="http://www.w3.org/1999/xlink" x="0px" y="0px" width="954px"
	 height="640px" viewBox="0 0 954 640" enable-background="new 0 0 954 640" xml:space="preserve">

<g id="LINES" opacity="1">	
	<g id="Pittsburg_x2F_Bay_Point_1_">
		<g>
			<path fill="#FFF100" d="M251.336,514.97c-0.01-12.113-0.02-24.226-0.03-36.339c-0.003-3.405-2.839-6.247-6.247-6.247
				c-12.402,0-24.804,0-37.206,0c1.472,0.61,2.945,1.22,4.417,1.83c-16.684-16.648-33.368-33.297-50.053-49.945
				c-8.055-8.038,0.945-15.066,6.62-20.734c10.53-10.52,21.061-21.039,31.591-31.558c9.203-9.193,18.406-18.387,27.609-27.58
				c10.059-10.048,21.759-16.291,36.309-16.291c26.408,0,52.816,0,79.224,0c3.715,0,7.49,0.18,11.171-0.409
				c10.771-1.725,19.964-10.055,21.198-21.141c0.496-4.452,0.153-9.076,0.153-13.544c0-7.947,0-15.894,0-23.84
				c0-4.62-0.133-9.26,0.065-13.877c0.251-5.873,7.214-10.603,10.96-14.355c3.738-3.744,7.476-7.488,11.213-11.232
				c41.179-41.247,82.357-82.494,123.536-123.741c18.541-18.572,37.081-37.143,55.622-55.715c5.696-5.706-3.137-14.541-8.834-8.834
				c-31.093,31.144-62.185,62.289-93.277,93.433c-32.461,32.515-64.922,65.03-97.383,97.545
				c-6.283,6.294-12.925,12.124-14.143,21.459c-0.618,4.738-0.252,9.68-0.252,14.443c0,12.386,0.427,24.852-0.039,37.229
				c-0.264,7.028-8.635,10.085-14.392,10.085c-4.279,0-8.558,0-12.837,0c-15.567,0-31.133,0-46.7,0
				c-9.877,0-19.833-0.37-29.704,0.104c-17.107,0.82-30.675,9.809-42.361,21.482c-19.888,19.866-39.777,39.733-59.665,59.601
				c-2.021,2.019-4.084,3.998-6.014,6.104c-7.458,8.138-7.263,21.462,0.56,29.268c7.905,7.888,15.81,15.775,23.714,23.663
				c8.89,8.871,17.78,17.742,26.67,26.612c3.166,3.159,7.484,2.434,11.6,2.434c7.75,0,15.501,0,23.252,0c2.458,0,4.917,0,7.376,0
				c-2.082-2.083-4.165-4.165-6.247-6.247c0.01,12.113,0.02,24.226,0.03,36.339C238.849,523.026,251.343,523.026,251.336,514.97
				L251.336,514.97z"/>
		</g>
	</g>
	
</g>
</svg>
