<?xml version="1.0" encoding="utf-8"?>
<!-- Generator: Adobe Illustrator 16.0.4, SVG Export Plug-In . SVG Version: 6.00 Build 0)  -->
<!DOCTYPE svg PUBLIC "-//W3C//DTD SVG 1.1//EN" "http://www.w3.org/Graphics/SVG/1.1/DTD/svg11.dtd">
<svg version="1.1" xmlns="http://www.w3.org/2000/svg" xmlns:xlink="http://www.w3.org/1999/xlink" x="0px" y="0px" width="954px"
	 height="640px" viewBox="0 0 954 640" enable-background="new 0 0 954 640" xml:space="preserve">
<g id="LINES" opacity="1">
	<g id="Richmond">
		<g>
			<path fill="#FFA100" d="M266.968,164.816c17.05,17.06,34.101,34.119,51.151,51.178c7.757,7.761,15.514,15.522,23.271,23.283
				c3.694,3.696,7.208,7.224,8.767,12.354c1.545,5.086,1.123,10.706,1.123,15.987c0,14.902,0,29.804,0,44.706
				c0,4.098,0,8.195,0,12.293c0,10.765,4.167,18.173,11.736,25.417c8.705,8.33,17.054,17.06,25.559,25.591
				c42.639,42.768,85.279,85.536,127.917,128.304c26.514,26.594,53.026,53.187,79.539,79.779c5.693,5.711,14.526-3.124,8.834-8.834
				c-27.867-27.952-55.734-55.903-83.603-83.855c-42.163-42.291-84.327-84.582-126.491-126.873
				c-9.1-9.127-18.862-17.956-27.488-27.542c-3.848-4.275-3.511-10.228-3.511-15.605c0-6.479,0-12.958,0-19.437
				c0-13.05,0-26.1,0-39.149c0-8.229-1.162-16.458-5.924-23.367c-2.409-3.494-5.471-6.447-8.458-9.436
				c-8.146-8.151-16.293-16.302-24.439-24.453c-16.383-16.391-32.766-32.783-49.149-49.174
				C270.102,150.279,261.268,159.113,266.968,164.816L266.968,164.816z"/>
		</g>
	</g>
</g>
</svg>
