<?xml version="1.0" encoding="utf-8"?>
<!-- Generator: Adobe Illustrator 16.0.4, SVG Export Plug-In . SVG Version: 6.00 Build 0)  -->
<!DOCTYPE svg PUBLIC "-//W3C//DTD SVG 1.1//EN" "http://www.w3.org/Graphics/SVG/1.1/DTD/svg11.dtd">
<svg version="1.1" xmlns="http://www.w3.org/2000/svg" xmlns:xlink="http://www.w3.org/1999/xlink" x="0px" y="0px" width="954px"
	 height="640px" viewBox="0 0 954 640" enable-background="new 0 0 954 640" xml:space="preserve">
<g id="LINES" opacity="1">
	<g id="Richmond_1_">
		<g>
			<path fill="#FF3A47" d="M240.68,519.982c-16.228-16.188-32.456-32.375-48.684-48.563c-10.171-10.145-20.341-20.29-30.512-30.436
				c-7.331-7.312-15.442-13.607-14.917-25.127c0.499-10.95,11.933-19.455,19.11-26.618c11.158-11.137,22.317-22.272,33.475-33.409
				c6.832-6.818,13.665-13.638,20.497-20.456c7.229-7.214,15.412-13.208,25.132-16.573c7.401-2.562,15.071-3.12,22.832-3.12
				c14.096,0,28.191,0,42.288,0c11.612,0,27.313,2.534,36.277-6.446c5.248-5.257,5.246-12.483,5.246-19.344c0-7.62,0-15.24,0-22.86
				c0-6.587,0.329-13.183-2.769-19.231c-2.201-4.296-6.215-7.622-9.608-11.015c-23.99-23.99-47.98-47.979-71.97-71.969
				c-5.702-5.702-14.536,3.132-8.834,8.834c17.157,17.157,34.314,34.314,51.472,51.471c7.357,7.357,14.715,14.715,22.073,22.072
				c4.595,4.595,7.143,7.367,7.143,14.036c0,6.276,0,12.552,0,18.828c0,5.485,0.147,10.992-0.045,16.475
				c-0.22,6.282-7.127,6.656-11.864,6.656c-14.096,0-28.191,0-42.288,0c-14.009,0-28.296-0.873-41.896,3.125
				c-14.618,4.297-25.825,14.042-36.356,24.552c-19.529,19.49-39.058,38.98-58.586,58.471c-3.504,3.497-6.792,7.005-9.33,11.331
				c-6.201,10.567-5.877,23.88,0.378,34.281c4.244,7.058,11.83,12.996,17.58,18.732c25.108,25.045,50.216,50.091,75.324,75.137
				C237.554,534.511,246.389,525.677,240.68,519.982L240.68,519.982z"/>
		</g>
	</g>
</g>
</svg>
